<svg xmlns="http://www.w3.org/2000/svg" viewBox="0 0 64 64" version="1.1">
 <path style="opacity:0.2" d="M 12.75,5 C 11.2265,5 10,6.2488 10,7.8 v 50.4 c 0,1.55008 1.2265,2.8 2.75,2.8 h 38.5 C 52.7724,61 54,59.75008 54,58.2 V 23 L 40,19 36,5 Z"/>
 <path style="fill:#37528c" d="M 12.75,4 C 11.2265,4 10,5.2488 10,6.8 v 50.4 c 0,1.55008 1.2265,2.8 2.75,2.8 h 38.5 C 52.7724,60 54,58.75008 54,57.2 V 22 L 40,18 36,4 Z"/>
 <path style="opacity:0.2" d="M 54,23 36,5 V 20.1875 C 36,21.74675 37.2555,23 38.8125,23 Z"/>
 <path style="fill:#5f75a3" d="M 54,22 36,4 V 19.1875 C 36,20.74675 37.2555,22 38.8125,22 Z"/>
 <path style="opacity:0.2;fill:#ffffff" d="M 12.75 4 C 11.2265 4 10 5.2495812 10 6.8007812 L 10 7.8007812 C 10 6.2495813 11.2265 5 12.75 5 L 36 5 L 36 4 L 12.75 4 z"/>
 <g transform="translate(6.2066238,0.89705509)">
  <g transform="matrix(0.38550911,0,0,0.38550911,10.69864,14.998101)">
   <g style="fill:#2c4270" transform="translate(1.8200379,1.2169152)">
    <path style="fill:#2c4270" d="m 37.847954,61.249659 c -0.26667,0 -0.53333,0.01667 -0.8,0.05 -0.33333,-0.166667 -0.63333,-0.333333 -0.9,-0.5 -0.2,-0.06667 -0.38333,-0.166667 -0.55,-0.3 l -0.6,-0.6 -4.25,-6.45 -1.5,11.25 h 3.45 c 0.5,-0.06667 1,-0.183333 1.5,-0.35 0.56667,-0.166667 1.11667,-0.416667 1.65,-0.75 0.36667,-0.233333 0.71667,-0.5 1.05,-0.8 0.33333,-0.3 0.65,-0.633333 0.95,-1 0.33333,-0.333333 0.58333,-0.733333 0.75,-1.2 -0.0333,0.03333 -0.0833,0.06667 -0.15,0.1 -0.0667,0.1 -0.15,0.183333 -0.25,0.25 l -0.1,0.2 c -0.1,0.03333 -0.18333,0.06667 -0.25,0.1"/>
    <path style="fill:#2c4270" d="M 40.65,47.25 H 51.8 L 49.75,61.7 h 16.5 l 2.3,-16.25 H 68.5 l 0.8,-5.7 c 0.266667,-1.633333 -0.06667,-3.033333 -1,-4.2 -0.233333,-0.266667 -0.483333,-0.533333 -0.75,-0.8 C 67.383333,34.583333 67.2,34.416667 67,34.25 66.866667,34.116667 66.716667,34 66.55,33.9 c -1.3,-0.933333 -2.8,-1.4 -4.5,-1.4 H 34.3 c -0.9,0 -1.766667,0.15 -2.6,0.45 -1.1,0.366667 -2.15,0.966667 -3.15,1.8 C 26.716667,36.25 25.633333,38 25.3,40 l -1.65,12 h 0.05 v 0.3 l 5.85,1.15 h -9.5 c -0.333333,0.03333 -0.666667,0.08333 -1,0.15 -0.333333,0.1 -0.666667,0.216667 -1,0.35 -0.333333,0.133333 -0.65,0.283333 -0.95,0.45 -0.333333,0.2 -0.65,0.433333 -0.95,0.7 -0.3,0.233333 -0.583333,0.5 -0.85,0.8 -0.233333,0.266667 -0.45,0.55 -0.65,0.85 -0.2,0.3 -0.366667,0.6 -0.5,0.9 -0.1,0.3 -0.2,0.616667 -0.3,0.95 L 8,100.2 h 16.25 l 5,-35.5 1.5,-11.25 4.25,6.45 0.6,0.6 c 0.166667,0.133333 0.35,0.233333 0.55,0.3 0.266667,0.166667 0.566667,0.333333 0.9,0.5 0.266667,-0.03333 0.533333,-0.05 0.8,-0.05 0.06667,-0.03333 0.15,-0.06667 0.25,-0.1 l 0.1,-0.2 c 0.1,-0.06667 0.183333,-0.15 0.25,-0.25 0.06667,-0.03333 0.116667,-0.06667 0.15,-0.1 l 0.3,-1.05 1.75,-12.3"/>
   </g>
   <path fill="#966214" transform="matrix(2.5939724,0,0,2.5939724,-43.851788,-41.231597)" d="m 31.490749,39.50379 c -0.102804,0 -0.205604,0.0064 -0.308407,0.01928 -0.128502,-0.06425 -0.244155,-0.128504 -0.346958,-0.192755 -0.0771,-0.0257 -0.147778,-0.06425 -0.21203,-0.115652 l -0.231306,-0.231306 -1.638414,-2.486534 -0.578263,4.336978 h 1.330006 c 0.192755,-0.0257 0.385509,-0.07068 0.578264,-0.134928 0.218456,-0.06425 0.430486,-0.160629 0.63609,-0.289132 0.141354,-0.08995 0.276283,-0.192755 0.404784,-0.308407 0.128502,-0.115653 0.250581,-0.244156 0.366234,-0.385509 0.128502,-0.128503 0.224879,-0.282707 0.289132,-0.462611 -0.01284,0.01285 -0.03211,0.0257 -0.05783,0.03855 -0.02571,0.03855 -0.05783,0.07068 -0.09638,0.09638 l -0.03855,0.0771 c -0.03855,0.01285 -0.07067,0.0257 -0.09638,0.03855"/>
   <path fill="#ffad33" d="M 40.65,47.25 H 51.8 L 49.75,61.7 h 16.5 l 2.3,-16.25 H 68.5 l 0.8,-5.7 c 0.266667,-1.633333 -0.06667,-3.033333 -1,-4.2 -0.233333,-0.266667 -0.483333,-0.533333 -0.75,-0.8 C 67.383333,34.583333 67.2,34.416667 67,34.25 66.866667,34.116667 66.716667,34 66.55,33.9 c -1.3,-0.933333 -2.8,-1.4 -4.5,-1.4 H 34.3 c -0.9,0 -1.766667,0.15 -2.6,0.45 -1.1,0.366667 -2.15,0.966667 -3.15,1.8 C 26.716667,36.25 25.633333,38 25.3,40 l -1.65,12 h 0.05 v 0.3 l 5.85,1.15 h -9.5 c -0.333333,0.03333 -0.666667,0.08333 -1,0.15 -0.333333,0.1 -0.666667,0.216667 -1,0.35 -0.333333,0.133333 -0.65,0.283333 -0.95,0.45 -0.333333,0.2 -0.65,0.433333 -0.95,0.7 -0.3,0.233333 -0.583333,0.5 -0.85,0.8 -0.233333,0.266667 -0.45,0.55 -0.65,0.85 -0.2,0.3 -0.366667,0.6 -0.5,0.9 -0.1,0.3 -0.2,0.616667 -0.3,0.95 L 8,100.2 h 16.25 l 5,-35.5 1.5,-11.25 4.25,6.45 0.6,0.6 c 0.166667,0.133333 0.35,0.233333 0.55,0.3 0.266667,0.166667 0.566667,0.333333 0.9,0.5 0.266667,-0.03333 0.533333,-0.05 0.8,-0.05 0.06667,-0.03333 0.15,-0.06667 0.25,-0.1 l 0.1,-0.2 c 0.1,-0.06667 0.183333,-0.15 0.25,-0.25 0.06667,-0.03333 0.116667,-0.06667 0.15,-0.1 l 0.3,-1.05 1.75,-12.3"/>
  </g>
 </g>
</svg>
